<?xml version="1.0" encoding="UTF-8"?>
<svg version="1.1" xmlns="http://www.w3.org/2000/svg" width="1024" height="1024">
<path d="M0 0 C337.92 0 675.84 0 1024 0 C1024 337.92 1024 675.84 1024 1024 C686.08 1024 348.16 1024 0 1024 C0 686.08 0 348.16 0 0 Z " fill="#030303" transform="translate(0,0)"/>
<path d="M0 0 C7.25462034 6.8133733 10.00378715 14.92527179 10.37083721 24.77495766 C10.45460657 28.73423482 10.46954345 32.69229941 10.4765625 36.65234375 C10.49070721 38.50216636 10.50612416 40.35197958 10.52267456 42.20178223 C10.56493751 47.35339278 10.58864798 52.5049537 10.60964966 57.65668869 C10.63571528 63.22766413 10.67945924 68.79850488 10.72070312 74.36938477 C10.82088192 88.46761384 10.89343596 102.56593798 10.96333909 116.66434044 C11.00761462 125.57926555 11.05425724 134.49417815 11.10090661 143.40909111 C11.11632165 146.35711053 11.13168294 149.30513022 11.14703178 152.25314999 C11.19980671 162.38162516 11.25313324 172.51009714 11.30728149 182.63856506 C11.32361562 185.70149186 11.33993186 188.76441875 11.35623145 191.82734573 C11.36711884 193.87279262 11.37802459 195.91823941 11.38894868 197.96368611 C11.45431466 210.23092733 11.51498934 222.49817472 11.56819975 234.76547492 C11.60221878 242.59030174 11.63926729 250.41511024 11.67855203 258.23991239 C11.70138629 262.82342291 11.72251862 267.4069269 11.73946762 271.99046326 C11.75518516 276.24074529 11.77529569 280.49098393 11.79874492 284.74123013 C11.80646952 286.28467356 11.81258067 287.82812612 11.81688809 289.37158287 C11.60285447 310.35612832 11.60285447 310.35612832 22 328 C30.99315044 333.59895619 46.09656975 332.3186152 56.21875 332.3359375 C57.6154391 332.34239075 59.01212695 332.3491208 60.40881348 332.35610962 C63.3028477 332.36794362 66.19676368 332.3718039 69.09082031 332.37060547 C72.78371529 332.37040048 76.47585626 332.39794749 80.16857147 332.43214989 C83.03917904 332.45443573 85.9096035 332.45844288 88.7802887 332.45738602 C90.79820465 332.46085911 92.81606353 332.48246358 94.8338623 332.50448608 C101.74921656 332.46995791 106.43608528 332.27939425 112 328 C118.28293634 320.44728387 118.70835785 308.31727716 118 299 C116.47060946 289.37822975 112.48657579 281.02919702 108.25262451 272.36978149 C106.30659757 268.38793123 104.39851394 264.38787413 102.484375 260.390625 C101.90657791 259.18790703 101.90657791 259.18790703 101.31710815 257.96089172 C97.33537151 249.65671837 93.57253958 241.26428918 89.83691406 232.84667969 C86.92237653 226.28393886 83.97279745 219.74092607 80.96875 213.21875 C80.2806941 211.72097833 79.59270553 210.22317572 78.90478516 208.7253418 C77.90418739 206.54710824 76.90166457 204.36990024 75.89178467 202.19595337 C73.86121423 197.82384699 71.9079634 193.42703411 70 189 C69.57340088 188.09749512 69.14680176 187.19499023 68.70727539 186.26513672 C67.15326826 182.44300552 66.68220898 180.10605737 67.83691406 176.0871582 C69.2846889 172.77310302 70.92480084 169.65758363 72.6875 166.5 C73.29239258 165.35869629 73.89728516 164.21739258 74.52050781 163.04150391 C76.31491564 159.67568722 78.15119134 156.33617293 80 153 C80.92950112 151.28966837 81.85800687 149.57879512 82.78515625 147.8671875 C84.2995824 145.0945646 85.83038702 142.3330292 87.390625 139.5859375 C87.77839111 138.90313721 88.16615723 138.22033691 88.56567383 137.5168457 C89.69713523 135.53144391 90.833409 133.54878465 91.97143555 131.56713867 C97.34324029 122.16265163 102.33780121 112.60849103 107.1496582 102.90649414 C108.324898 100.53750878 109.50670848 98.1718867 110.68945312 95.80664062 C114.28310736 88.60209437 117.82946362 81.40358496 121 74 C121.66 74 122.32 74 123 74 C129.43201962 90.35182454 134.52735127 107.12612369 139.76371765 123.88671875 C141.64492703 129.8969562 143.58090614 135.88690551 145.54125977 141.87182617 C153.44639467 166.03173686 160.68295614 190.40311853 168.0177002 214.74066162 C168.92110936 217.73823541 169.82519045 220.73560554 170.72949219 223.73291016 C172.23902731 228.73779656 173.74547471 233.74360547 175.25 238.75 C175.48518341 239.53206818 175.72036682 240.31413635 175.962677 241.11990356 C178.51422686 249.61069143 181.03831254 258.10875023 183.51290894 266.62231445 C184.66339275 270.58026744 185.81903264 274.53671059 186.97424316 278.49328613 C187.78029971 281.26430359 188.57739316 284.03778444 189.37402344 286.81152344 C192.66062167 298.13717797 196.53619525 309.0847904 201 320 C200.67692871 319.08951904 200.35385742 318.17903809 200.02099609 317.2409668 C194.13196056 298.54729232 202.64964214 265.70071572 211 249 C211.1173854 246.2979129 211.17520173 243.62012683 211.18945312 240.91699219 C211.19774643 240.08087402 211.20603973 239.24475586 211.21458435 238.38330078 C211.23201273 236.56195744 211.24717186 234.74059132 211.26036072 232.91921234 C211.28140819 230.02512341 211.30843914 227.13114512 211.33703613 224.23712158 C211.39680417 218.07479097 211.44877457 211.91240667 211.5 205.75 C211.55948531 198.64742575 211.62223826 191.54490337 211.69187927 184.44242096 C211.71814336 181.6122454 211.73915783 178.78206394 211.7598877 175.95184326 C211.82312437 168.73377283 211.88985462 161.55661711 212.49780273 154.35986328 C213.40010058 143.16715853 213.23937837 131.91723456 213.31640625 120.6953125 C213.33701228 118.1594105 213.35800961 115.62351165 213.37937927 113.08761597 C213.42863987 107.13113856 213.47400025 101.17463982 213.51740164 95.21811759 C213.56710643 88.4270831 213.62189921 81.63609249 213.67708123 74.84510064 C213.79031007 60.89677486 213.89727338 46.94840681 214 33 C229.26450913 33.06059129 244.52886747 33.13813127 259.79318333 33.23571491 C266.88106866 33.28063431 273.96890418 33.32005777 281.05688477 33.34643555 C287.89750723 33.37190835 294.73789849 33.41283902 301.57838249 33.46318626 C304.18781714 33.47986779 306.79729019 33.49137403 309.40677071 33.49761391 C313.06251401 33.50724059 316.71768785 33.53528454 320.37329102 33.56762695 C321.45151123 33.56619186 322.52973145 33.56475677 323.640625 33.5632782 C330.73656842 33.65202694 335.91587248 34.31127345 341.4375 39.125 C344.36028877 44.50293134 343.36250217 50.26316472 341.8125 56.01953125 C341.22514215 57.95569986 340.61950105 59.88637524 340 61.8125 C339.65388672 62.91158691 339.30777344 64.01067383 338.95117188 65.14306641 C333.83701047 81.02983741 327.96069579 96.66303032 322.19148254 112.32028198 C319.79929431 118.81452285 317.42808015 125.31599247 315.07421875 131.82421875 C301.11488406 170.41075816 287.00156987 208.93886755 271.77330017 247.04541016 C269.42295434 252.92853712 267.09450805 258.82011014 264.7734375 264.71484375 C264.42450439 265.60077713 264.07557129 266.48671051 263.71606445 267.39949036 C262.35238434 270.86226549 260.98896872 274.3251445 259.62609863 277.78823853 C258.70212812 280.13521327 257.77698758 282.4817235 256.8515625 284.828125 C256.5762973 285.52820175 256.3010321 286.2282785 256.01742554 286.9495697 C254.11398807 291.77202386 254.11398807 291.77202386 253 294 C259.47371743 294.07671463 265.94731557 294.12887575 272.42138672 294.16479492 C274.61902243 294.1797854 276.81662871 294.20018466 279.01416016 294.22631836 C297.63151002 295.58253954 297.63151002 295.58253954 314.1050415 289.04516602 C316.79319403 284.72535071 316.54320658 281.13219015 316.48242188 276.1394043 C316.48829063 274.65530312 316.48829063 274.65530312 316.49427795 273.14122009 C316.50025113 270.99415918 316.49708626 268.84705778 316.4858551 266.70001793 C316.46856771 263.2882422 316.47611895 259.87731226 316.4901123 256.4655304 C316.51974555 247.98285467 316.5066437 239.50034003 316.49493408 231.01763916 C316.48668124 223.86170986 316.49488946 216.70614944 316.52406311 209.55027199 C316.53108817 206.21358537 316.51455837 202.87757277 316.49694824 199.54093933 C316.4997921 182.90927135 319.445133 169.36592436 325.4375 153.8125 C329.58818252 142.71072589 332.57464265 131.59052685 335 120 C335.66 120.33 336.32 120.66 337 121 C337.07020316 142.04528755 337.12304347 163.09055568 337.15543652 184.13593674 C337.17087957 193.9085355 337.19191993 203.68106134 337.22631836 213.45361328 C337.25629935 221.97526483 337.27559361 230.49686354 337.28226548 239.01856637 C337.28616305 243.52721212 337.29526903 248.03570676 337.31719017 252.54430389 C337.33769302 256.79601587 337.34380618 261.04751581 337.33932304 265.29927254 C337.34014212 266.85197417 337.34602507 268.40468357 337.35761642 269.95734215 C337.45976782 284.35813612 335.93847726 295.86531384 326.2890625 306.96875 C318.38809604 314.83637905 307.48680117 316.44278093 296.73686218 316.53013611 C294.93932243 316.51328514 294.93932243 316.51328514 293.10546875 316.49609375 C291.83326981 316.49754898 290.56107086 316.49900421 289.25032043 316.50050354 C286.58338125 316.49885527 283.91791305 316.48956251 281.2512207 316.46655273 C277.85434676 316.43802562 274.45836897 316.44096304 271.06142712 316.45364285 C267.78438419 316.46230664 264.50748378 316.44714702 261.23046875 316.43359375 C260.02198776 316.43652939 258.81350677 316.43946503 257.56840515 316.44248962 C249.63542825 316.35411975 243.3893171 315.87355145 237.125 310.5625 C231.58455158 303.88137102 231.87237346 296.27126386 232.56445312 287.94628906 C234.04258559 277.94735264 238.43097023 268.47640643 242.15124512 259.14111328 C243.67776151 255.29024352 245.16803312 251.42529068 246.6640625 247.5625 C249.00279044 241.53475327 251.35401457 235.51209404 253.71829224 229.49432373 C258.3393251 217.73054399 262.8770893 205.93635547 267.375 194.125 C267.68753723 193.30586121 268.00007446 192.48672241 268.32208252 191.64276123 C277.46265683 167.67891484 286.27173378 143.59905523 294.875 119.4375 C295.74770931 116.99068933 296.62051309 114.54391236 297.4934082 112.09716797 C302.91812179 96.88381212 308.32006784 81.66245404 313.66162109 66.41967773 C314.09684082 65.18032471 314.53206055 63.94097168 314.98046875 62.6640625 C315.35067139 61.60654785 315.72087402 60.5490332 316.10229492 59.45947266 C317 57 317 57 318 55 C317.30704834 55.03029297 316.61409668 55.06058594 315.90014648 55.09179688 C297.86930613 55.84750228 279.8586357 56.1098098 261.8125 56.125 C260.23430984 56.12874634 260.23430984 56.12874634 258.62423706 56.13256836 C255.61013479 56.1384489 252.5961346 56.13697664 249.58203125 56.1328125 C248.21828873 56.13578842 248.21828873 56.13578842 246.82699585 56.13882446 C245.98536896 56.13571259 245.14374207 56.13260071 244.27661133 56.12939453 C243.54404617 56.12859894 242.81148102 56.12780334 242.05671692 56.12698364 C240 56 240 56 236 55 C236 93.61 236 132.22 236 172 C239.6019545 167.49755688 240.54165368 166.07107115 241.8125 160.875 C243.33417269 155.18347229 245.11741818 149.70228186 247.1875 144.1875 C247.48027832 143.40536133 247.77305664 142.62322266 248.07470703 141.81738281 C248.70559738 140.1334549 249.33696498 138.44970573 249.96875 136.76611328 C254.99158991 123.29339164 259.9793754 109.80997145 264 96 C259.05 96 254.1 96 249 96 C249 87.42 249 78.84 249 70 C263.85 70 278.7 70 294 70 C292.55364293 77.95496387 291.00358181 85.06713351 288.625 92.6875 C288.25125244 93.88681152 287.87750488 95.08612305 287.49243164 96.32177734 C277.20771481 128.80109827 265.04131667 160.74050441 253.09960938 192.63964844 C247.91957278 206.48243964 242.82044174 220.35392662 237.76147461 234.24142456 C236.89502255 236.61935455 236.02754977 238.99691292 235.15893555 241.37405396 C232.40798532 248.90502934 229.68863786 256.44656097 227 264 C226.46712875 265.48564957 226.46712875 265.48564957 225.92349243 267.00131226 C224.91811275 269.82001589 223.93244921 272.64480952 222.953125 275.47265625 C222.66122787 276.2853598 222.36933075 277.09806335 222.06858826 277.93539429 C218.12362364 289.53348067 218.13343514 303.02596894 222.73828125 314.44921875 C226.31715192 321.68452076 229.44259371 326.74249729 237 330 C243.79414557 332.11655476 250.12759822 332.3066087 257.21484375 332.30078125 C258.96856041 332.30720894 258.96856041 332.30720894 260.75770569 332.31376648 C263.2278682 332.31949304 265.69804757 332.32002243 268.16821289 332.31567383 C271.89434684 332.31253634 275.61966843 332.33591718 279.34570312 332.36132812 C309.83736388 332.66565803 309.83736388 332.66565803 335.7109375 318.484375 C345.85200347 307.47803036 350.15139426 295.6508001 350.14476013 280.85494995 C350.14828698 279.93147267 350.15181382 279.00799538 350.15544754 278.05653393 C350.16612575 274.96069853 350.16981404 271.86489391 350.17358398 268.76904297 C350.17989006 266.54972707 350.18665593 264.33041244 350.19384766 262.11109924 C350.20851563 257.33009988 350.22024132 252.54910539 350.22979546 247.76809311 C350.24525332 240.20353662 350.26920346 232.63902189 350.29469299 225.07449341 C350.32980577 214.46373086 350.36289716 203.85296576 350.39282227 193.2421875 C350.39472276 192.56903087 350.39662325 191.89587424 350.39858133 191.20231892 C350.42538545 181.65968285 350.44926796 172.11704169 350.47196633 162.57439508 C350.47436229 161.56738885 350.47436229 161.56738885 350.47680664 160.54003906 C350.47840011 159.86952412 350.47999357 159.19900918 350.48163532 158.5081756 C350.50845411 147.30612592 350.54298888 136.10411194 350.58346039 124.90210259 C350.61018338 117.38775436 350.62811918 109.87345306 350.63949764 102.35906672 C350.6486484 97.67462951 350.6660222 92.99024908 350.68567657 88.30584526 C350.69312588 86.13996846 350.69723155 83.97407706 350.69767189 81.80818748 C350.70900821 50.94805094 350.70900821 50.94805094 358.7578125 42.05859375 C365.79371655 35.4503623 372.84192012 33.42505742 382.375 33.5 C383.20918457 33.50499512 384.04336914 33.50999023 384.90283203 33.51513672 C391.40505389 33.69903026 396.87947431 34.71629174 402 39 C405.64471823 43.07124766 408.43499931 47.1484995 410.85546875 52.0625 C411.36426826 53.08972168 411.36426826 53.08972168 411.88334656 54.13769531 C416.18708769 63.11720063 419.20902733 72.55627276 422.3125 82 C423.22409436 84.73550944 424.13900199 87.46989278 425.05448914 90.20410156 C425.61630856 91.88602763 426.17529147 93.56890515 426.73078918 95.25292969 C428.3727228 100.2166806 430.13520379 105.1153966 432 110 C434.4151471 106.37727936 435.49082755 102.63834715 436.7578125 98.51953125 C437.30678855 96.7791381 437.85628593 95.03890932 438.40625 93.29882812 C439.26072958 90.57833023 440.11132027 87.85682991 440.95214844 85.13208008 C444.66920461 73.12236441 449.03217913 62.06669183 455 51 C455.52215088 49.97430908 456.04430176 48.94861816 456.58227539 47.8918457 C460.60289643 40.06397369 466.4530922 36.81876312 474.4375 33.625 C485.21879772 31.73354426 494.52008517 33.35586478 503.875 39.1875 C508.62052887 42.84931435 511.14216774 48.42650321 513 54 C513.10366934 56.15580197 513.14646132 58.31468501 513.15821838 60.47294617 C513.16315636 61.13296137 513.16809434 61.79297658 513.17318195 62.47299224 C513.18856236 64.68861663 513.19691902 66.90421202 513.20532227 69.11987305 C513.21490036 70.70650488 513.22491041 72.29313415 513.23532104 73.87976074 C513.26238356 78.19141272 513.28338584 82.50307567 513.30332303 86.81476569 C513.32517426 91.31914253 513.35256717 95.82348553 513.37937927 100.32783508 C513.42931783 108.85942319 513.47425235 117.39103007 513.51740164 125.92265493 C513.56676407 135.63477485 513.62168589 145.34686083 513.67708123 155.05894792 C513.79091913 175.03926699 513.89775424 195.01961847 514 215 C521.33497647 190.13128437 528.52649605 165.22994129 535.45678711 140.24542236 C537.09829973 134.32959218 538.74457721 128.4150866 540.39117241 122.50066948 C540.95219028 120.4837342 541.51175399 118.46640037 542.07106018 116.44898987 C542.41249557 115.2206694 542.75393097 113.99234894 543.10571289 112.72680664 C543.40038956 111.66466446 543.69506622 110.60252228 543.99867249 109.50819397 C545.28758968 104.9924172 546.65057972 100.49806761 548 96 C540.41 96 532.82 96 525 96 C524.67 87.75 524.34 79.5 524 71 C541.34383636 70.31456963 558.64051482 69.83315592 576 70 C575.02158769 75.33751755 574.01517179 80.66938309 573 86 C572.81244141 86.99064453 572.62488281 87.98128906 572.43164062 89.00195312 C568.155179 111.46375641 568.155179 111.46375641 565.06640625 120.7421875 C564.01990059 123.93920479 563.0966877 127.14924373 562.19335938 130.38867188 C559.26828507 140.87774113 556.08260043 151.27962121 552.85894775 161.67971802 C547.16300213 180.06157212 541.52939897 198.44389437 537.00558472 217.15670776 C533.18145536 232.90937272 528.51591069 248.38249006 523.80810547 263.88916016 C518.76409225 280.43471665 518.76409225 280.43471665 514.54296875 297.203125 C514.3870224 297.89763763 514.23107605 298.59215027 514.07040405 299.30770874 C512.91220209 304.77670876 512.55541159 310.19739871 512.25390625 315.765625 C510.70496417 335.49676411 497.12594993 350.30333787 484.40234375 364.38671875 C482.83475867 366.19009658 481.42548889 368.08316714 480 370 C505.96542528 369.93937937 531.93075264 369.86181865 557.89606667 369.76428509 C569.95316314 369.71938669 582.01023046 369.67995831 594.06738281 369.65356445 C604.58068966 369.63053612 615.09390382 369.59708419 625.60713708 369.55129844 C631.16990478 369.52743141 636.73258104 369.50865996 642.29539871 369.50238609 C647.54030677 369.49630569 652.78498107 369.47619973 658.02980232 369.44572449 C659.9460735 369.43699143 661.86237529 369.43321177 663.77866554 369.43499184 C680.9880833 369.44592232 698.309457 368.4452554 711.625 356.0625 C716.45781841 350.90218291 720.23467925 345.00121455 724.03125 339.0625 C726 336 726 336 727 335 C729.69654854 334.92680379 732.36691458 334.90757463 735.0625 334.9375 C735.82111328 334.94201172 736.57972656 334.94652344 737.36132812 334.95117188 C739.24091871 334.9629932 741.12046899 334.98092922 743 335 C742.17314513 351.26147906 733.68662021 366.91949299 722 378 C703.98376982 393.1762333 682.72314672 393.45615982 660.37185705 393.39780539 C656.85519728 393.39195768 653.33858542 393.40357311 649.82193899 393.41286707 C643.66881603 393.426735 637.51576658 393.42952594 631.36263084 393.42490768 C622.21252073 393.41805794 613.0624847 393.42835552 603.91238488 393.44186524 C586.61852447 393.46674365 569.32469498 393.47129584 552.03081954 393.46939927 C538.67648183 393.46802515 525.32215482 393.47184895 511.96781921 393.47932434 C510.04788569 393.48037468 508.12795216 393.4814223 506.20801863 393.4824672 C504.77841327 393.48324622 504.77841327 393.48324622 503.31992699 393.48404097 C501.88768338 393.48482119 501.88768338 393.48482119 500.42650557 393.48561716 C498.99183403 393.48640315 498.99183403 393.48640315 497.52817923 393.48720502 C470.63695274 393.50178304 443.74573018 393.51007304 416.85449982 393.50545502 C415.33462824 393.50519708 415.33462824 393.50519708 413.78405219 393.50493394 C408.64872588 393.50404508 403.51339957 393.50310026 398.37807328 393.50213593 C397.35821325 393.5019449 396.33835322 393.50175387 395.28758834 393.50155704 C393.22518626 393.50116995 391.16278419 393.50077962 389.10038211 393.50038607 C357.00195056 393.49441467 324.90359108 393.5098627 292.80517578 393.54199219 C256.72793983 393.57807388 220.65074957 393.59740138 184.57349443 393.59245348 C180.72638989 393.59198351 176.87928534 393.59157326 173.03218079 393.59120178 C171.61133661 393.5910482 171.61133661 393.5910482 170.1617885 393.59089152 C155.86847347 393.58969716 141.57520785 393.60165751 127.28190613 393.62034607 C111.02696707 393.64158942 94.77213164 393.64542617 78.51718795 393.62604648 C69.42398046 393.61572594 60.33102583 393.61917595 51.23784123 393.64257733 C45.1591864 393.65683242 39.08071824 393.65281586 33.00207593 393.63413157 C29.54181859 393.62400346 26.08205259 393.62158892 22.62182635 393.64145225 C-1.32916692 393.75165787 -17.40513275 389.81440908 -35.390625 372.89453125 C-50.78977769 355.81253703 -53.34110415 334.38377795 -53.24291992 312.23046875 C-53.24396652 310.82345081 -53.24587932 309.41643329 -53.24856949 308.00941753 C-53.2533034 304.20190604 -53.24564068 300.3945122 -53.23556781 296.58701491 C-53.2268379 292.47889413 -53.22962835 288.37077726 -53.23072815 284.26264954 C-53.23085149 276.2770682 -53.21962711 268.29154301 -53.20358616 260.30597919 C-53.19060228 253.83837717 -53.18085556 247.3707782 -53.17321777 240.90316772 C-53.14778871 219.95105 -53.10459679 198.99902565 -53.04592323 178.04697514 C-53.01983377 168.70012421 -52.99550655 159.3532798 -52.97784424 150.00640869 C-52.97615374 149.11238393 -52.97446324 148.21835918 -52.97272152 147.29724276 C-52.96934455 145.50516113 -52.965969 143.71307949 -52.96259487 141.92099786 C-52.93193244 125.79902605 -52.88509326 109.67721177 -52.81127834 93.55537605 C-52.80399238 91.95903657 -52.79671928 90.36269702 -52.78945923 88.76635742 C-52.78588671 87.98255042 -52.78231419 87.19874342 -52.77863342 86.39118469 C-52.7545208 80.89580481 -52.74013883 75.40045082 -52.72982788 69.9050293 C-52.71712695 63.23791814 -52.69048258 56.57104169 -52.64568788 49.90406579 C-52.62333915 46.52857565 -52.60918155 43.15361109 -52.60806465 39.77800941 C-52.60571408 36.12938122 -52.57887285 32.48171379 -52.54589844 28.83325195 C-52.55092975 27.78670944 -52.55596106 26.74016693 -52.56114483 25.66191101 C-52.44508008 17.4329197 -50.50451773 10.33474223 -46.375 3.1875 C-33.85203377 -8.346811 -13.88020348 -10.40478932 0 0 Z " fill="#F6F6F6" transform="translate(167,319)"/>
<path d="M0 0 C3.69663721 0.01330157 7.39322643 0.00322553 11.08987081 -0.00376439 C18.3091418 -0.01378798 25.52822786 -0.00264285 32.74747584 0.01593621 C41.16744224 0.0368182 49.58736984 0.03656086 58.00735726 0.03559105 C73.03451908 0.03459239 88.06159541 0.05284522 103.0887264 0.08195949 C117.64896359 0.11015427 132.2091256 0.12429972 146.76939046 0.12297511 C148.11582593 0.12285524 148.11582593 0.12285524 149.48946211 0.12273295 C150.38558257 0.12265224 151.28170302 0.12257153 152.20497864 0.12248838 C168.81883522 0.12110685 185.43266008 0.13289603 202.04650635 0.15079481 C207.90753318 0.15681186 213.76855414 0.15895204 219.62958372 0.15985942 C226.77389564 0.16122723 233.91815401 0.17020627 241.06244323 0.18852504 C244.70333985 0.19772266 248.34416826 0.20386623 251.98507726 0.20133662 C255.93909852 0.19872275 259.89298382 0.21170093 263.84698141 0.22615504 C264.98687452 0.22305784 266.12676763 0.21996063 267.30120295 0.21676958 C286.99514843 0.33535569 305.07424067 6.04045703 319.2906307 19.99358058 C320.0537557 20.81858058 320.8168807 21.64358058 321.6031307 22.49358058 C324.589267 21.15631085 326.55590856 19.6765374 328.8531307 17.36858058 C345.53923196 2.40430966 367.71879382 0.18492733 389.03672445 0.23479152 C390.99091889 0.23207759 392.9451123 0.22851441 394.89930379 0.2241714 C400.18024005 0.21509293 405.46109772 0.21857286 410.74203527 0.22492957 C416.28354506 0.23001315 421.82504837 0.22529158 427.36655843 0.22215724 C436.67036297 0.21852445 445.97413569 0.22329864 455.27793539 0.23283839 C466.01557977 0.2437216 476.75314818 0.24019554 487.49079072 0.22918558 C496.73018037 0.22009311 505.96954723 0.21883701 515.20893991 0.22406292 C520.71835039 0.22717184 526.22772523 0.22762167 531.73713338 0.22098994 C536.91808644 0.21518856 542.09894209 0.21926429 547.2798847 0.23077846 C549.17486444 0.23341015 551.06985246 0.23268561 552.96482885 0.22825313 C576.56612288 0.17816157 596.51865696 4.45235843 614.2593807 21.12639308 C625.35956274 32.33757694 634.6894929 47.44846447 634.7906307 63.68108058 C634.7287557 64.93920558 634.6668807 66.19733058 634.6031307 67.49358058 C633.44552138 68.15551144 632.2762924 68.79712204 631.1031307 69.43108058 C630.12859945 69.97055324 630.12859945 69.97055324 629.1343807 70.52092433 C625.63972084 71.86377974 622.32660686 72.12201521 618.6031307 72.49358058 C618.34209554 71.97561915 618.08106039 71.45765773 617.81211507 70.9240005 C608.59053713 52.7331864 598.52157619 33.54315554 578.10744894 26.38821864 C568.92944606 23.64975824 559.78861404 23.94088829 550.2840389 23.9918716 C548.25895982 23.98808193 546.23388333 23.98257658 544.20881307 23.97549891 C538.74409801 23.96161424 533.27970026 23.97266364 527.81500304 23.98921013 C522.07951576 24.00312676 516.34404567 23.99659326 510.60854757 23.99307704 C500.98291102 23.99038079 491.35739958 24.0038024 481.73179281 24.02702785 C470.61914556 24.0536565 459.5067071 24.05537524 448.39403886 24.04363948 C437.67845811 24.03284535 426.96295254 24.03906017 416.24737775 24.05319476 C411.69777995 24.05893807 407.14823747 24.05888498 402.59863889 24.05412936 C397.2394998 24.04934261 391.88058822 24.05953157 386.52149236 24.08108401 C384.5599822 24.08662809 382.59845006 24.08713916 380.63693845 24.08213115 C364.96242754 24.04714237 353.85559149 25.31355293 341.7359432 36.16545558 C336.03484751 42.10300225 332.3893868 49.60480977 328.54526937 56.81120753 C327.6446049 58.41952028 326.62562634 59.95983711 325.6031307 61.49358058 C323.2203182 61.78654933 323.2203182 61.78654933 320.4781307 61.68108058 C319.56805257 61.65401027 318.65797445 61.62693995 317.7203182 61.59904933 C317.02164632 61.56424464 316.32297445 61.52943995 315.6031307 61.49358058 C315.32340414 60.75494777 315.04367757 60.01631495 314.75547445 59.25529933 C310.1215958 47.52905337 303.37867353 33.48840239 291.6031307 27.49358058 C280.69945706 23.90326047 269.92462387 24.08494474 258.58433187 24.15300441 C256.592292 24.15385213 254.6002512 24.15337271 252.60821187 24.15167689 C247.23716861 24.15082118 241.86632904 24.16837786 236.49533284 24.18939877 C230.86862254 24.20823671 225.24190685 24.20992159 219.61516988 24.21347499 C208.97660153 24.22277462 198.3381264 24.2473601 187.69959897 24.27752346 C175.58104061 24.31113245 163.46247764 24.32756979 151.34388423 24.34260976 C126.43024817 24.3739116 101.51669468 24.42663139 76.6031307 24.49358058 C77.07363851 25.3417837 77.54414632 26.18998683 78.02891195 27.06389308 C86.08435775 42.02808403 87.04649736 56.16496524 86.97544515 72.86613917 C86.97787791 74.8847568 86.9816019 76.90337321 86.98650777 78.92198634 C86.9958505 84.36373505 86.9865493 89.80530182 86.97317564 95.24703622 C86.96179772 100.95809342 86.9659733 106.66914249 86.96792257 112.38020778 C86.96880312 121.96116021 86.95777173 131.54204156 86.93931234 141.12297511 C86.91811215 152.1896386 86.91464399 163.25619831 86.9208743 174.322878 C86.9265724 184.99200207 86.92091934 195.66108972 86.90970075 206.33020854 C86.9050644 210.86191046 86.90417669 215.39359004 86.9062866 219.92529368 C86.90817297 225.25894862 86.90003873 230.59249819 86.8842262 235.9261291 C86.87999219 237.88042078 86.87912685 239.83472317 86.8819164 241.78901744 C86.88515153 244.4611916 86.87602322 247.1330535 86.86382711 249.80519557 C86.86760643 250.57387851 86.87138576 251.34256145 86.87527961 252.13453782 C86.83440854 257.21433722 86.13376639 261.63473326 84.6031307 266.49358058 C83.9431307 266.82358058 83.2831307 267.15358058 82.6031307 267.49358058 C82.45136877 266.93220393 82.29960683 266.37082728 82.14324605 265.79243922 C80.53743581 259.85293786 78.93074742 253.9136745 77.32358968 247.97453761 C76.72701852 245.76951818 76.13065789 243.56444178 75.53452718 241.35930324 C68.622963 215.75143242 68.622963 215.75143242 61.3531307 190.24358058 C61.05994955 189.24294581 60.76676839 188.24231105 60.46470296 187.21135402 C59.51321881 183.97139284 58.55836324 180.73243842 57.6031307 177.49358058 C57.2839266 176.40690089 56.9647225 175.3202212 56.63584554 174.20061183 C47.82344101 144.25495696 38.83097484 114.27140002 27.9781307 84.99358058 C27.73219167 84.32054896 27.48625265 83.64751735 27.23286092 82.95409083 C26.54348421 81.07711624 25.83548602 79.20701221 25.1265682 77.33733058 C24.73388753 76.29770167 24.34120687 75.25807277 23.93662679 74.18693995 C21.98680082 70.24873416 19.84572469 68.05839603 15.8531307 66.24358058 C10.62890064 65.03798903 6.67799538 64.43168177 1.79771078 66.9293716 C-2.55162098 69.93114255 -4.36652912 74.34349662 -6.63515055 78.98186183 C-7.13774897 79.97680156 -7.64034739 80.97174129 -8.15817606 81.9968307 C-9.59822643 84.85405434 -11.02362884 87.71815206 -12.44570506 90.58434749 C-14.1465601 93.99840425 -15.87162803 97.40022274 -17.59364665 100.80363917 C-21.47856883 108.48975391 -25.3374282 116.1887118 -29.18861735 123.89177394 C-30.78839394 127.09140876 -32.39100128 130.28959981 -33.99623454 133.4865005 C-44.75732855 154.84447689 -44.75732855 154.84447689 -55.07265055 176.41936183 C-55.4421432 177.19418406 -55.81163584 177.9690063 -56.19232523 178.767308 C-58.76082849 184.44678234 -58.31230484 186.96774431 -56.26454508 192.61784816 C-55.56047526 194.36037868 -55.56047526 194.36037868 -54.8421818 196.13811183 C-54.58530589 196.77555324 -54.32842997 197.41299464 -54.06376994 198.06975245 C-53.22223421 200.15092452 -52.37295807 202.22879818 -51.5218693 204.30608058 C-51.22864787 205.02419917 -50.93542643 205.74231776 -50.6333195 206.48219752 C-41.50742355 228.79754567 -31.07976548 250.45972562 -20.51015055 272.11858058 C-20.17268809 272.81126536 -19.83522563 273.50395015 -19.48753703 274.21762538 C-17.7465522 277.77927902 -15.978988 281.32444813 -14.1678654 284.85100245 C-13.80484828 285.56208156 -13.44183115 286.27316066 -13.06781352 287.00578761 C-12.38283998 288.34397125 -11.69207056 289.67921249 -10.99411356 291.01067042 C-7.78237614 297.29742701 -6.32223634 303.50883901 -5.3968693 310.49358058 C-5.2834318 311.30955714 -5.1699943 312.1255337 -5.0531193 312.96623683 C-4.76665228 316.79773325 -5.29235472 318.35713098 -7.6468693 321.43108058 C-11.57025381 324.37361896 -14.6417927 324.61633123 -19.46571696 324.68645167 C-20.97846705 324.71054606 -20.97846705 324.71054606 -22.52177775 324.73512721 C-27.13654557 324.77987092 -31.75117315 324.82065645 -36.36610758 324.84367824 C-38.79263764 324.86020729 -41.21911963 324.88745651 -43.64540446 324.92570949 C-47.1591684 324.98076915 -50.67179323 325.00239944 -54.1859318 325.01701808 C-55.25920725 325.03968745 -56.33248271 325.06235682 -57.43828166 325.08571315 C-65.86465448 325.06233845 -72.35209879 322.9160787 -78.8343693 317.43108058 C-79.3499943 316.79170558 -79.8656193 316.15233058 -80.3968693 315.49358058 C-80.9331193 314.85420558 -81.4693693 314.21483058 -82.0218693 313.55608058 C-85.70716703 308.02813399 -85.68158284 303.07154424 -85.65083659 296.62721705 C-85.65551656 295.12561988 -85.65551656 295.12561988 -85.66029108 293.59368742 C-85.66827584 290.23522623 -85.66194535 286.87694549 -85.65565836 283.51848292 C-85.65836811 281.11197753 -85.66192895 278.70547297 -85.66627848 276.29896998 C-85.67446072 270.43716195 -85.67324968 264.57540086 -85.6674532 258.71359412 C-85.66293434 253.94597329 -85.66232479 249.17836679 -85.66450083 244.41074443 C-85.6648073 243.73185897 -85.66511376 243.0529735 -85.66542952 242.35351575 C-85.66606899 240.97424446 -85.66671741 239.59497317 -85.6673747 238.21570189 C-85.67307882 225.27913587 -85.66652018 212.34259818 -85.65577397 199.40603681 C-85.64685048 188.32110878 -85.6483804 177.23622268 -85.65761149 166.15129542 C-85.66833359 153.2699597 -85.67251675 140.38864888 -85.66638696 127.50730932 C-85.6657499 126.13130999 -85.66512115 124.75531066 -85.66450083 123.37931132 C-85.66419228 122.70236297 -85.66388373 122.02541462 -85.66356583 121.32795268 C-85.6618438 116.57262298 -85.66474362 111.81730915 -85.66945994 107.06198192 C-85.6756812 100.64831662 -85.671201 94.23471159 -85.65967143 87.82105327 C-85.65703453 85.47133714 -85.65777329 83.12161434 -85.66219676 80.77190089 C-85.6676924 77.5551274 -85.66076927 74.3386037 -85.65083659 71.12184596 C-85.65529803 70.20012453 -85.65975947 69.27840311 -85.66435611 68.32875073 C-85.60895391 59.02617118 -84.04760001 50.12067349 -80.7093693 41.43108058 C-80.44664225 40.74699122 -80.1839152 40.06290187 -79.91322672 39.35808253 C-77.52676861 33.40494151 -74.57283465 28.38981902 -70.3968693 23.49358058 C-69.62858805 22.57963527 -68.8603068 21.66568995 -68.0687443 20.72404933 C-63.11364799 15.30163106 -58.21323726 11.39307681 -51.7093693 8.05608058 C-51.12357096 7.75041163 -50.53777262 7.44474269 -49.93422282 7.12981105 C-33.92083383 -0.4600103 -17.32649228 -0.08319531 0 0 Z " fill="#F7F7F7" transform="translate(278.39686930179596,311.5064194202423)"/>
<path d="M0 0 C2.77829603 2.11965651 3.86897462 3.29328413 4.51225281 6.76295471 C4.52105217 8.38378212 4.52105217 8.38378212 4.5300293 10.03735352 C4.54656052 11.29907379 4.56309174 12.56079407 4.5801239 13.86074829 C4.57846102 15.283468 4.5764786 16.70618736 4.57421875 18.12890625 C4.58647113 19.6709433 4.60047544 21.21296722 4.61604309 22.75497437 C4.6465323 26.17994079 4.66387757 29.60466248 4.671875 33.02975464 C4.68511065 38.67895473 4.7261757 44.32776967 4.76953125 49.97680664 C4.83441786 58.90408685 4.88296074 67.83136626 4.92333984 76.75878906 C4.97763033 88.72173598 5.04161336 100.68459726 5.11181641 112.64746094 C5.1168465 113.50587133 5.12187659 114.36428172 5.1270591 115.24870455 C5.17972656 124.21972427 5.23335329 133.19073812 5.2875908 142.16174847 C5.30970241 145.81917533 5.33175105 149.47660257 5.35377133 153.13402998 C5.36484059 154.97183228 5.37593082 156.80963445 5.38704193 158.6474365 C5.45317624 169.60904335 5.51477274 180.57065663 5.56848568 191.53233171 C5.60293691 198.56281847 5.63992108 205.59328883 5.67865235 212.62375331 C5.70108521 216.72551483 5.72215427 220.82727143 5.73945045 224.92905807 C5.80682425 240.6948048 5.93494687 256.45822541 6.33712101 272.21949875 C6.37330948 273.66063953 6.40696256 275.10184685 6.43772793 276.54311359 C6.84266319 294.95059614 8.73030222 313.75576073 21.76171875 327.9140625 C29.64689548 335.1081788 38.56034037 336.14282136 48.78417969 336.17700195 C49.64681427 336.18357315 50.50944885 336.19014435 51.39822388 336.19691467 C54.23944196 336.21654781 57.08060745 336.22828743 59.921875 336.23828125 C60.89682167 336.24235678 61.87176834 336.2464323 62.87625885 336.25063133 C68.03599329 336.27144872 73.19570147 336.28576958 78.35546875 336.29516602 C83.66581191 336.30622627 88.97573561 336.34063443 94.28593063 336.38033772 C98.38678737 336.40656079 102.4875449 336.41486286 106.58847809 336.41844749 C108.54516689 336.42329805 110.50185171 336.43486803 112.45845795 336.45348549 C126.74294051 336.78004512 126.74294051 336.78004512 140 332 C141.60875 331.1646875 141.60875 331.1646875 143.25 330.3125 C151.32744148 323.52010603 155.23152121 313.19648129 157 303 C157.08450608 301.33329909 157.12206258 299.66375972 157.12025452 297.99491882 C157.12162918 297.01200363 157.12300385 296.02908844 157.12442017 295.01638794 C157.12082489 293.94967865 157.11722961 292.88296936 157.11352539 291.78393555 C157.11374443 290.08571907 157.11374443 290.08571907 157.1139679 288.35319519 C157.11327172 284.61435016 157.10549306 280.87555507 157.09765625 277.13671875 C157.09579102 274.54311653 157.09436761 271.94951395 157.09336853 269.35591125 C157.08994164 263.22910598 157.08206162 257.10232129 157.07201904 250.97552377 C157.06083173 243.99851766 157.05534086 237.02151069 157.05032361 230.04449785 C157.0398783 215.6963223 157.02229518 201.34816178 157 187 C159.92691819 189.6573717 161.53581081 191.62554156 162.62963867 195.42651367 C163.01953728 196.74393303 163.01953728 196.74393303 163.41731262 198.08796692 C163.68565414 199.04249252 163.95399567 199.99701813 164.23046875 200.98046875 C164.526082 201.99126999 164.82169525 203.00207123 165.12626648 204.04350281 C165.76353257 206.22631 166.39521667 208.41075298 167.02191162 210.59661865 C167.99797169 213.99294226 168.99304725 217.38309439 169.99462891 220.77197266 C171.74788812 226.70679805 173.48740527 232.64553724 175.22271729 238.58563232 C176.3369078 242.39597042 177.45484798 246.20519819 178.57373047 250.01416016 C181.7893005 260.966763 184.99436817 271.9207245 188.08203125 282.91015625 C188.73244944 285.20256359 189.38414302 287.49460325 190.03646851 289.78646851 C190.60063227 291.78852583 191.14700024 293.79483076 191.69262695 295.80200195 C195.33113663 308.56814489 201.70554065 321.59462199 213.12890625 329.0390625 C227.52002813 336.85368287 242.94971916 336.32372678 258.9296875 336.3359375 C260.93401174 336.34238288 262.93833508 336.34911246 264.94265747 336.35610962 C269.12308938 336.36801204 273.30343909 336.37179757 277.48388672 336.37060547 C282.79792384 336.37040228 288.11142625 336.39773684 293.42533684 336.43214989 C297.55903471 336.45455705 301.69260646 336.45843886 305.8263588 336.45738602 C307.7836606 336.45971999 309.7409671 336.46841644 311.69820786 336.48405075 C333.3499875 336.64088003 352.83035237 332.64647403 368.99169922 317.26806641 C386.95778063 299.17863393 389.4598869 273.89868032 389.38476562 249.74389648 C389.38887752 247.52336855 389.39434203 245.30284278 389.40104675 243.08232117 C389.41271254 238.32762173 389.41527757 233.57303819 389.41069031 228.81832695 C389.40385192 221.30086773 389.41979499 213.78355985 389.43908691 206.26612854 C389.46403274 195.7310514 389.48081691 185.19599125 389.48876953 174.66088867 C389.4895303 173.66091312 389.4895303 173.66091312 389.49030644 172.64073605 C389.49434117 167.22766324 389.49783759 161.81459011 389.50130367 156.40151691 C389.5043633 151.65626824 389.50763506 146.91101978 389.51123047 142.16577148 C389.51173308 141.49721563 389.5122357 140.82865977 389.51275355 140.13984465 C389.5214959 128.99403934 389.54204487 117.84827863 389.57071257 106.70250565 C389.58908183 99.22741223 389.59295722 91.75249336 389.58577728 84.27738273 C389.58425832 79.63693701 389.59501981 74.99657921 389.60915565 70.3561573 C389.61316623 68.20225989 389.61201986 66.04834588 389.60538292 63.89445496 C389.59702891 60.95838688 389.60695987 58.02292985 389.62145996 55.0868988 C389.61111906 53.80403816 389.61111906 53.80403816 389.60056925 52.49526113 C389.64539033 47.84860786 389.97305001 44.77025202 393 41 C395.41993358 39.79003321 397.1746633 39.72916729 399.875 39.625 C400.73867188 39.57601562 401.60234375 39.52703125 402.4921875 39.4765625 C406.07910013 40.22523274 406.91954093 42.05341054 409 45 C410.18164062 47.56665039 410.18164062 47.56665039 411.15625 50.34765625 C411.53289795 51.40968262 411.9095459 52.47170898 412.29760742 53.56591797 C412.69439697 54.71979004 413.09118652 55.87366211 413.5 57.0625 C414.13869019 58.88612061 414.13869019 58.88612061 414.7902832 60.74658203 C422.90847771 84.00162457 430.97903889 107.38872294 438 131 C438.17418677 131.53193089 438.34837355 132.06386177 438.52783871 132.61191177 C439.21771921 136.10117602 439.13364575 139.56985287 439.12025452 143.11175537 C439.12153615 144.34807296 439.12153615 144.34807296 439.12284368 145.60936666 C439.12449248 148.37469094 439.11898689 151.13995473 439.11352539 153.90527344 C439.11324336 155.88613382 439.11340156 157.8669943 439.1139679 159.84785461 C439.11425526 165.22968664 439.10836826 170.61149647 439.10139394 175.99332333 C439.09515037 181.61609218 439.0945558 187.23886152 439.09336853 192.8616333 C439.09025818 203.51108638 439.08204877 214.16052921 439.07201904 224.80997777 C439.06084873 236.93317586 439.05534513 249.05637444 439.05032361 261.1795764 C439.03986592 286.11972328 439.02227219 311.05986107 439 336 C441.37528151 335.85796663 443.75015251 335.71148388 446.125 335.5625 C446.79015625 335.52318359 447.4553125 335.48386719 448.140625 335.44335938 C452.15018817 335.187848 456.04994196 334.73217587 460 334 C459.92949779 332.91205894 459.85899557 331.82411789 459.78635693 330.70320892 C459.10604132 319.71627575 458.85086592 308.78121954 458.85473633 297.77539062 C458.85173382 296.03528778 458.84832884 294.29518558 458.84455872 292.55508423 C458.83583475 287.89033459 458.83338584 283.22560334 458.83274293 278.56084633 C458.83202685 275.63829487 458.82988232 272.71574795 458.82724571 269.79319763 C458.81803743 259.57599597 458.81390595 249.35880724 458.81469727 239.14160156 C458.81529988 229.64722706 458.80470049 220.15290903 458.7889536 210.65854883 C458.77586251 202.47125817 458.77051388 194.28398597 458.77115268 186.09668493 C458.77140679 181.22176964 458.76860221 176.34690489 458.75797462 171.47200012 C458.74826474 166.89505268 458.74823419 162.31820391 458.75549126 157.7412529 C458.75653284 156.06837697 458.75419971 154.39549479 458.7481308 152.72262955 C458.71007131 141.50070469 459.68118936 131.58136735 463.16723633 120.84472656 C463.47749504 119.88140411 463.47749504 119.88140411 463.79402161 118.89862061 C464.46796558 116.81083088 465.14981559 114.72572493 465.83203125 112.640625 C466.31087 111.16401875 466.78927029 109.68727024 467.26725769 108.21038818 C468.26662738 105.12643879 469.26964415 102.04370993 470.27563477 98.96191406 C471.55156179 95.05297539 472.82083689 91.14191998 474.08763599 87.2300148 C475.07509462 84.18184024 476.06489696 81.13443096 477.05548668 78.08727264 C477.52346366 76.64761386 477.99103935 75.20782457 478.45816994 73.76789093 C479.74376101 69.80908539 481.04198236 65.85488195 482.36258316 61.90760803 C482.79477858 60.61416957 483.22410934 59.31977103 483.65084457 58.02452087 C484.28577421 56.10609724 484.9369761 54.19308319 485.58862305 52.28027344 C485.96125778 51.17504333 486.33389252 50.06981323 486.71781921 48.93109131 C488.72450914 44.34375741 491.5333441 41.26617101 496 39 C499.09769106 38.26982996 500.75716392 38.45036677 504 39 C506.07690602 40.54725592 506.88874246 41.41476728 507.37604749 43.97807086 C507.37653455 44.73756923 507.37702161 45.4970676 507.37752342 46.27958107 C507.38534666 47.15781961 507.39316991 48.03605815 507.40123022 48.94090998 C507.39453805 49.90655135 507.38784589 50.87219272 507.38095093 51.86709595 C507.38797089 53.40499851 507.38797089 53.40499851 507.39513266 54.97396982 C507.40714508 58.42629838 507.39760073 61.87823455 507.38818359 65.33056641 C507.39224666 67.79913567 507.39758705 70.26770311 507.40411377 72.73626709 C507.41640265 78.75680204 507.41456252 84.77718176 507.40587585 90.79771073 C507.39910481 95.69316677 507.39818007 100.58859138 507.4014473 105.48405075 C507.401907 106.18043681 507.40236669 106.87682286 507.40284032 107.59431153 C507.4037995 109.00901935 507.40477214 110.42372717 507.4057581 111.83843498 C507.4143196 125.11544625 507.40446795 138.39239547 507.388357 151.66939656 C507.3749708 163.05290363 507.37726639 174.43631884 507.39111328 185.81982422 C507.40718622 199.03953481 507.41347692 212.25919085 507.40427649 225.47890985 C507.40332086 226.89029144 507.40237775 228.30167305 507.4014473 229.71305466 C507.40098447 230.40745907 507.40052164 231.10186349 507.40004479 231.81731046 C507.39745872 236.70180456 507.40181801 241.58626398 507.40888596 246.47075272 C507.41820405 253.05513539 507.41152028 259.63937202 507.39420319 266.22374725 C507.39024124 268.63880247 507.39136736 271.05387228 507.39799118 273.46892166 C507.40620858 276.76981073 507.3958818 280.07014811 507.38095093 283.3710022 C507.39098918 284.79938775 507.39098918 284.79938775 507.40123022 286.25662959 C507.34943443 292.17482518 506.65863863 297.63073068 504 303 C501.29120665 304.35439668 498.99066732 304.06501451 496 304 C494.23139954 299.41441524 493.73208968 295.56105889 493.68115234 290.65771484 C493.66608816 289.57610234 493.66608816 289.57610234 493.65071964 288.47263908 C493.61963021 286.05207873 493.60266829 283.63163675 493.5859375 281.2109375 C493.56702106 279.45016741 493.54739251 277.68940485 493.52711487 275.9286499 C493.47447448 271.09333267 493.43522003 266.25798769 493.39890671 261.4225235 C493.37500424 258.37554087 493.34733532 255.32861588 493.31838989 252.28167725 C492.77576024 194.8569072 492.90417442 137.42658036 493 80 C492.67477859 81.20237053 492.67477859 81.20237053 492.34298706 82.42903137 C484.55218678 111.1572688 484.55218678 111.1572688 480.125 123.6875 C479.37170036 125.83517792 478.62418615 127.98489489 477.8828125 130.13671875 C477.56715332 131.03092529 477.25149414 131.92513184 476.92626953 132.84643555 C474.17081258 142.22762624 473.70624029 151.15014078 473.7253418 160.89794922 C473.72098616 162.37747452 473.71580019 163.85699757 473.70985413 165.33651733 C473.69654439 169.32836487 473.69587645 173.32011726 473.69841743 177.31198263 C473.69949262 180.65661275 473.69458982 184.00122405 473.689812 187.34585011 C473.67874456 195.2427883 473.67826381 203.13967891 473.68432617 211.03662109 C473.69036403 219.15618282 473.67805338 227.27557117 473.6567561 235.39510334 C473.63908602 242.39162412 473.63314724 249.38808998 473.63639385 256.38463223 C473.63819825 260.55217341 473.63565536 264.7195909 473.62167931 268.88711166 C473.60901714 272.80903922 473.61112343 276.73069834 473.62409019 280.65262222 C473.6264374 282.08276718 473.62378881 283.51293153 473.61546707 284.9430542 C473.55500978 296.15064296 474.18929942 307.65961063 481 317 C485.8884452 321.42287899 490.67277859 321.7499122 497 322 C492.90814101 331.4735431 484.08499786 338.60539638 475 343 C473.5459375 343.73863281 473.5459375 343.73863281 472.0625 344.4921875 C466.39202786 346.87991563 460.21675017 347.60277234 454.1875 348.625 C452.96740234 348.8415625 451.74730469 349.058125 450.49023438 349.28125 C424.86146501 353.74321737 398.78820425 353.15275573 372.86141431 353.14538372 C368.30863805 353.14517689 363.75586782 353.15072459 359.20309448 353.15544128 C350.31811511 353.16368487 341.43314237 353.16649315 332.54815949 353.16705366 C325.32296778 353.16753133 318.09777823 353.16959848 310.8725872 353.17275429 C290.33795098 353.18153956 269.80331995 353.18617639 249.26868183 353.18542381 C248.16576634 353.18538386 247.06285085 353.1853439 245.92651367 353.18530273 C244.82223663 353.18526185 243.7179596 353.18522097 242.58021962 353.18517885 C224.65757075 353.18477181 206.73494284 353.19436159 188.81230003 353.2084411 C170.36065066 353.22282083 151.90901151 353.22971057 133.45735639 353.22884732 C123.11727888 353.22851616 112.7772234 353.23122842 102.43715096 353.24202538 C93.64260645 353.25115088 84.848094 353.2532884 76.05354679 353.24651595 C71.57351784 353.2432626 67.09355032 353.24315128 62.6135273 353.2518692 C58.50254745 353.25978651 54.39167724 353.25825007 50.2806999 353.24958507 C48.8039922 353.24806165 47.3272761 353.24982182 45.85057832 353.25544515 C29.69482261 353.31283022 12.70824128 353.3463204 0.125 341.75 C-11.7275649 328.53872644 -13.14990548 312.63548944 -13.14717102 295.61325073 C-13.15084771 294.37741592 -13.1545244 293.1415811 -13.1583125 291.86829674 C-13.16739404 288.45466649 -13.17203894 285.04108413 -13.17470181 281.62744641 C-13.17862328 277.93963207 -13.18819963 274.25183142 -13.19691467 270.56402588 C-13.21661779 261.67145313 -13.22673328 252.77887935 -13.23564246 243.88629025 C-13.24003176 239.69607513 -13.24539655 235.50586126 -13.25063133 231.31564713 C-13.26763048 217.38579763 -13.28212745 203.45594889 -13.28938007 189.52609062 C-13.29128984 185.91664504 -13.29321021 182.30719946 -13.29516602 178.69775391 C-13.29564976 177.80068612 -13.2961335 176.90361833 -13.2966319 175.97936668 C-13.30494318 161.42773838 -13.33030444 146.87619198 -13.36274669 132.32459949 C-13.39579621 117.37877159 -13.41382655 102.43298539 -13.41702431 87.48712075 C-13.41919037 79.09770435 -13.42795402 70.70840773 -13.45348549 62.31902695 C-13.47516293 55.17985329 -13.48325719 48.04082857 -13.47351871 40.90162574 C-13.46896661 37.25928108 -13.47091294 33.61724395 -13.49028015 29.97494125 C-13.51108953 26.02742631 -13.50095123 22.08033763 -13.48774719 18.13278198 C-13.49871644 16.9806496 -13.50968568 15.82851722 -13.52098733 14.64147174 C-13.47108051 8.4822948 -13.21991957 4.64238246 -9 0 C-5.81452856 -1.59273572 -3.39809153 -0.76164121 0 0 Z " fill="#080808" transform="translate(150,336)"/>
<path d="M0 0 C17.97259008 10.35291978 31.51075422 26.61732311 38.59375 46.1484375 C41.54138801 57.16043709 42.02229419 67.72835725 41.96606445 79.06079102 C41.96849909 80.80381486 41.97222488 82.5468373 41.97712708 84.28985596 C41.98644712 88.97785095 41.9771866 93.6656339 41.96379495 98.35361218 C41.95238346 103.28643609 41.95659534 108.21925102 41.95854187 113.15208435 C41.95942172 121.43077002 41.94840869 129.70937332 41.92993164 137.98803711 C41.90876183 147.52715467 41.90525755 157.06615178 41.9114936 166.60528809 C41.91720958 175.82475963 41.9115158 185.04418922 41.90032005 194.26365471 C41.89570428 198.16798627 41.89478699 202.07229192 41.8969059 205.97662544 C41.89880464 210.58229047 41.89056446 215.18783478 41.8748455 219.79347229 C41.87064262 221.47272174 41.86972476 223.15198353 41.87253571 224.83123589 C41.88669107 234.80907956 41.32731117 244.29491635 39.59375 254.1484375 C39.44500585 254.99866769 39.29626169 255.84889788 39.14301014 256.72489262 C35.84846633 274.83003959 27.72710767 287.83653626 12.78125 298.8984375 C-2.35769988 308.88726994 -17.09210084 313.79164269 -35.20239258 313.60253906 C-36.74123607 313.60140783 -38.2800817 313.60204981 -39.81892395 313.60430908 C-43.95458013 313.60544642 -48.08976255 313.58209812 -52.22530961 313.55401325 C-56.56275353 313.52883416 -60.90021094 313.52664469 -65.23771667 313.52191162 C-73.43264215 313.50952997 -81.62735158 313.47677424 -89.82218236 313.43651366 C-99.15963952 313.39164527 -108.49710756 313.3697712 -117.83464587 313.34973192 C-137.0253026 313.30803675 -156.21575886 313.23777934 -175.40625 313.1484375 C-177.6738362 309.10138312 -177.67051878 305.50645718 -177.59375 300.9609375 C-177.59310547 300.22423828 -177.59246094 299.48753906 -177.59179688 298.72851562 C-177.54675904 293.28894654 -177.54675904 293.28894654 -176.40625 292.1484375 C-174.52022638 292.04401925 -172.63026333 292.01044338 -170.74136353 292.00367737 C-169.51059082 291.99677887 -168.27981812 291.98988037 -167.01174927 291.98277283 C-165.63494888 291.98005774 -164.25814833 291.97742062 -162.88134766 291.97485352 C-161.44093626 291.96855144 -160.00052683 291.96178603 -158.56011963 291.95458984 C-155.44933096 291.93988806 -152.33854998 291.92817574 -149.22774124 291.91864204 C-144.30148028 291.90320671 -139.37528392 291.87925325 -134.44906616 291.85374451 C-120.43727713 291.78251076 -106.42544981 291.72294015 -92.41357422 291.67163086 C-84.68148322 291.64324136 -76.94945525 291.60780563 -69.21743047 291.56497711 C-64.32903041 291.53832276 -59.44070169 291.5203442 -54.55224347 291.50893986 C-51.49463513 291.4997512 -48.43711241 291.4823591 -45.37955475 291.46276093 C-43.97158799 291.45534687 -42.56359915 291.45120812 -41.15561295 291.45076561 C-24.40217743 291.44125709 -9.0986498 289.29484242 3.4296875 277.40625 C13.19233447 267.13202328 16.81599526 254.6945629 17.0012207 240.85888672 C17.020128 239.95911732 17.0390353 239.05934792 17.05851555 238.13231277 C17.11821594 235.11434137 17.16325399 232.09636691 17.20703125 229.078125 C17.24465189 226.88491677 17.28235907 224.69171003 17.32014465 222.49850464 C17.78659727 193.44097173 17.78123857 164.37798893 17.77886212 135.31748557 C17.77921346 128.97840688 17.7909325 122.63938225 17.8047964 116.30032074 C17.81790096 110.08006481 17.82323612 103.85983306 17.82259732 97.63956344 C17.82234523 93.97007117 17.8250406 90.30064637 17.83577538 86.63116837 C17.84732836 82.57974347 17.84269179 78.5284877 17.83666992 74.47705078 C17.84228943 73.29899368 17.84790894 72.12093658 17.85369873 70.90718079 C17.78824537 53.52668234 13.98851268 40.12195904 1.8046875 27.234375 C-3.27704206 22.4399517 -7.63590778 20.02929972 -14.21875 17.8984375 C-15.37213867 17.49625 -15.37213867 17.49625 -16.54882812 17.0859375 C-23.04164574 14.93810247 -28.70512166 14.31119531 -35.40625 16.1484375 C-35.538701 38.24192854 -35.66914632 60.33543069 -35.79740143 82.4289465 C-35.85703793 92.69457989 -35.91726462 102.9602091 -35.97900391 113.22583008 C-36.05036402 125.10496989 -36.12013116 136.9841181 -36.1875 148.86328125 C-36.19297726 149.82908725 -36.19845451 150.79489326 -36.20409775 151.78996611 C-36.38891664 184.57649176 -36.47522874 217.36138108 -36.40625 250.1484375 C-34.96761139 250.18232769 -33.52874157 250.20649619 -32.08984375 250.2265625 C-31.28861084 250.24106445 -30.48737793 250.25556641 -29.66186523 250.27050781 C-26.52933295 250.10098014 -24.78103418 249.1634059 -22.40625 247.1484375 C-19.71370419 243.33810373 -20.13370873 239.09058439 -20.16574097 234.61907959 C-20.16403212 233.74994879 -20.16232327 232.88081799 -20.16056263 231.98534989 C-20.15726379 229.06794933 -20.16827798 226.15077787 -20.17919922 223.23339844 C-20.17976325 221.14416509 -20.17944694 219.05493135 -20.17831421 216.96569824 C-20.17773937 211.28839563 -20.18951495 205.61117718 -20.20346212 199.93389416 C-20.2159476 194.0028291 -20.21713826 188.07176221 -20.21951294 182.14068604 C-20.22573413 170.90685577 -20.2421536 159.67306434 -20.26221192 148.43925118 C-20.28455103 135.65101537 -20.29555935 122.86277772 -20.30560279 110.07452726 C-20.32651926 83.76580913 -20.36170767 57.45712549 -20.40625 31.1484375 C-10.93794101 35.75373775 -2.40590439 43.25455559 1.59375 53.1484375 C2.90717313 58.96717379 2.82091174 64.84956407 2.91015625 70.78515625 C2.94166779 72.60186577 2.94166779 72.60186577 2.97381592 74.45527649 C3.04170473 78.58209069 3.10053578 82.70894543 3.15625 86.8359375 C3.17109751 87.90793396 3.17109751 87.90793396 3.18624496 89.00158691 C3.60977233 119.77458693 3.79127812 150.55122804 3.87985229 181.32681274 C3.89541725 186.53341836 3.92024958 191.73985483 3.95291138 196.94638062 C3.99126374 203.17387911 4.00937474 209.40113159 4.01276398 215.62874413 C4.01721765 217.94512475 4.02847302 220.26150394 4.04708099 222.5778141 C4.26177492 250.73757028 4.26177492 250.73757028 -4.46875 261.5859375 C-13.61017475 270.84784232 -25.17922479 274.8363295 -38.0222168 275.22827148 C-40.8175587 275.24632829 -43.6109714 275.23599862 -46.40625 275.2109375 C-47.37175781 275.20642578 -48.33726562 275.20191406 -49.33203125 275.19726562 C-51.69017447 275.18559165 -54.04816619 275.16831796 -56.40625 275.1484375 C-58.24557658 265.39728108 -58.68576742 255.89900431 -58.63671875 246.01171875 C-58.63606707 244.36627718 -58.63623079 242.72083514 -58.63711548 241.07539368 C-58.63647194 236.50632282 -58.62222615 231.93738796 -58.604496 227.3683548 C-58.59369085 224.44493302 -58.58562191 221.52151634 -58.57846069 218.5980835 C-58.55679372 209.82980751 -58.53134497 201.06156272 -58.49476624 192.29333496 C-58.43344515 177.5231542 -58.3950783 162.75320874 -58.37988281 147.98291016 C-58.36281431 131.47320889 -58.32608598 114.9636593 -58.26934147 98.4540453 C-58.23794286 89.18154816 -58.2147331 79.90918068 -58.21151733 70.6366272 C-58.20859818 62.62461979 -58.18815865 54.61288373 -58.14602637 46.60098296 C-58.1247088 42.44495628 -58.11167829 38.28931592 -58.12004471 34.13323402 C-58.12756877 30.27955052 -58.11184342 26.42666438 -58.07817805 22.57312715 C-58.06998292 21.17250046 -58.07017173 19.77179396 -58.079656 18.37117541 C-58.12791987 10.46647855 -57.94485266 4.18565297 -52.40625 -1.8515625 C-37.66359922 -13.77115249 -15.17718799 -7.95795034 0 0 Z " fill="#F6F6F6" transform="translate(855.40625,359.8515625)"/>
<path d="M0 0 C11.59626903 -0.11601952 23.19239922 -0.20477937 34.78913116 -0.25906086 C40.17440846 -0.28511774 45.5592877 -0.32044473 50.94433594 -0.37719727 C56.14446406 -0.43165591 61.34421009 -0.46144993 66.54460144 -0.47438622 C68.52530428 -0.4836012 70.50598699 -0.50159614 72.48652649 -0.52865028 C75.26816451 -0.56512487 78.04823817 -0.56993769 80.83007812 -0.56762695 C81.64288239 -0.58560333 82.45568665 -0.60357971 83.29312134 -0.62210083 C89.31493692 -0.56822679 93.31958136 1.22094007 98 5 C101.95976831 9.49387659 102.66096818 13.37625503 102.52734375 19.203125 C102.51597885 19.99076233 102.50461395 20.77839966 102.49290466 21.58990479 C102.18687445 30.64480867 99.96973183 39.06205425 97.5625 47.75 C97.06864278 49.59161581 96.57643428 51.43367438 96.08569336 53.27612305 C95.00283009 57.32309455 93.90461953 61.36553266 92.796875 65.40576172 C91.22241865 71.15947355 89.69207332 76.92412301 88.17004395 82.69189453 C79.10614107 116.99261282 68.90567158 150.80045265 57.78923035 184.48817444 C53.4876963 197.52485202 49.27100611 210.58840154 45.07077026 223.65802002 C43.90343854 227.2866005 42.73155273 230.91368359 41.55883789 234.54052734 C40.84896712 236.74311444 40.13924206 238.94574851 39.4296875 241.1484375 C39.10982376 242.13505371 38.78996002 243.12166992 38.46040344 244.13818359 C38.16393417 245.06115234 37.8674649 245.98412109 37.56201172 246.93505859 C37.30700897 247.72512299 37.05200623 248.51518738 36.78927612 249.32919312 C35.74735847 252.8549058 34.8916687 256.43332518 34 260 C65.68 260.99 65.68 260.99 98 262 C98 266.95 98 271.9 98 277 C89.00285173 278.02707172 80.00275736 279.0233793 71 280 C70.0409375 280.10634766 69.081875 280.21269531 68.09375 280.32226562 C56.66619813 281.57215411 45.22672826 282.28475405 33.74200439 282.72479248 C32.2599866 282.78276922 30.77815386 282.845712 29.29656982 282.91387939 C27.2083642 283.00728931 25.12048973 283.07883757 23.03125 283.14453125 C21.82017578 283.18940674 20.60910156 283.23428223 19.36132812 283.28051758 C15.54417692 282.96195956 13.23534868 282.02209292 10 280 C7.45581362 276.18372042 7.46403897 273.40937991 8 269 C9.04930421 264.49201893 10.42288609 260.10081889 11.8125 255.6875 C12.22048772 254.36565689 12.62761162 253.0435469 13.03393555 251.72119141 C14.12052094 248.19602479 15.22165547 244.67555913 16.32568359 241.15582275 C17.21304416 238.31888734 18.09023576 235.47885425 18.96748352 232.63877869 C23.54776816 217.82159879 28.28324055 203.06591929 33.24249268 188.37121582 C44.73638694 154.28868447 54.31424402 119.63078486 64 85 C64.22643188 84.19159668 64.45286377 83.38319336 64.68615723 82.55029297 C67.88484229 71.12432506 70.96582025 59.67268903 73.9609375 48.19140625 C75.70503277 41.58477335 77.57127092 35.04663104 79.62890625 28.53173828 C79.85807739 27.80241592 80.08724854 27.07309357 80.32336426 26.32167053 C80.88106445 24.54740953 81.44036268 22.77365095 82 21 C81.01250259 21.00222061 80.02500519 21.00444122 79.00758362 21.00672913 C69.72200971 21.02696082 60.43644025 21.04197227 51.15084934 21.05181217 C46.3765172 21.05704093 41.60220279 21.06413844 36.82788086 21.07543945 C32.22433738 21.0862686 27.62081101 21.09227689 23.01725578 21.09487724 C21.25690377 21.09673144 19.49655274 21.10035196 17.73620796 21.10573006 C15.27927723 21.11294086 12.82241805 21.11399093 10.36547852 21.11352539 C9.63036545 21.11712067 8.89525238 21.12071594 8.13786316 21.12442017 C3.11405216 21.11405216 3.11405216 21.11405216 2 20 C1.77376479 18.51562191 1.60587035 17.02222575 1.46484375 15.52734375 C1.37783203 14.62822266 1.29082031 13.72910156 1.20117188 12.80273438 C1.11416016 11.85720703 1.02714844 10.91167969 0.9375 9.9375 C0.84662109 8.98810547 0.75574219 8.03871094 0.66210938 7.06054688 C0.43743502 4.70737865 0.21691818 2.35389381 0 0 Z " fill="#F6F6F6" transform="translate(685,353)"/>
<path d="M0 0 C2.8805177 -0.0022041 5.760662 -0.02048176 8.64111328 -0.03930664 C10.50439325 -0.04223872 12.367675 -0.04422476 14.23095703 -0.04516602 C15.07599792 -0.05235153 15.92103882 -0.05953705 16.79168701 -0.06694031 C29.24887072 -0.01991144 40.967176 3.16426144 50.23876953 11.87280273 C61.88356612 26.17512552 62.64083836 45.63485187 62.37158203 63.24780273 C62.35961878 64.76838515 62.34856322 66.28897495 62.33837891 67.80957031 C62.23106979 80.27804546 61.81517976 92.73559237 61.12158203 105.18530273 C58.9984207 103.06214141 58.61921075 102.08653827 57.78955078 99.28295898 C57.43183594 98.08558105 57.43183594 98.08558105 57.06689453 96.86401367 C56.81681641 96.00066406 56.56673828 95.13731445 56.30908203 94.24780273 C56.04482422 93.35480469 55.78056641 92.46180664 55.50830078 91.54174805 C53.97847316 86.31790157 52.55785131 81.07557722 51.22119141 75.79931641 C43.84328957 46.66786508 43.84328957 46.66786508 24.84814453 24.73608398 C14.77975191 19.19370382 4.21049761 18.88854714 -7.06591797 19.06030273 C-8.20867187 19.06932617 -9.35142578 19.07834961 -10.52880859 19.08764648 C-13.31224107 19.11093881 -16.09521026 19.14364275 -18.87841797 19.18530273 C-27.42842447 37.23003973 -35.89415739 55.30741796 -44.12695312 73.49926758 C-44.74198292 74.85817322 -45.35705496 76.21705975 -45.97216797 77.57592773 C-46.43373795 78.59567184 -46.43373795 78.59567184 -46.90463257 79.63601685 C-51.00689043 88.68921676 -55.16282686 97.71784122 -59.31591797 106.74780273 C-59.69738983 107.57736481 -60.07886169 108.40692688 -60.47189331 109.2616272 C-62.60647526 113.90327898 -64.74199851 118.54449643 -66.87841797 123.18530273 C-67.20841797 123.18530273 -67.53841797 123.18530273 -67.87841797 123.18530273 C-67.92530212 114.92540022 -67.96056588 106.66555571 -67.98204231 98.40555191 C-67.99236351 94.5677639 -68.00630154 90.73006864 -68.02929688 86.89233398 C-68.30594914 39.42094257 -68.30594914 39.42094257 -61.87841797 26.18530273 C-61.22873047 24.78924805 -61.22873047 24.78924805 -60.56591797 23.36499023 C-55.43065576 13.12237485 -48.67960242 6.29081004 -37.87841797 2.18530273 C-25.6234511 -0.62589129 -12.50199709 -0.00107056 0 0 Z " fill="#090909" transform="translate(282.87841796875,334.814697265625)"/>
<path d="M0 0 C2.14401067 2.14401067 2.552701 3.2256073 3.43286133 6.05981445 C3.69686234 6.89861649 3.96086334 7.73741852 4.23286438 8.60163879 C4.51308945 9.5129808 4.79331451 10.42432281 5.08203125 11.36328125 C5.37808762 12.30624557 5.67414398 13.2492099 5.97917175 14.2207489 C6.92950377 17.24952734 7.87167985 20.28075459 8.8125 23.3125 C9.74326642 26.30475065 10.67596226 29.29634693 11.61369324 32.28642273 C12.19677477 34.1462824 12.77595757 36.00737118 13.35029602 37.86994934 C14.52099 41.60937101 15.68610318 45.27757969 17.24939919 48.87543964 C20.84944518 57.22135886 21.71464445 64.30090929 21.63110352 73.32958984 C21.636258 74.7128999 21.6435507 76.09620336 21.65278625 77.47949219 C21.67113199 81.19940899 21.65846286 84.9185989 21.63869596 88.63848448 C21.62213429 92.56747798 21.63114792 96.49643164 21.63621521 100.42544556 C21.64072216 107.03065372 21.62496689 113.63557749 21.59692383 120.24072266 C21.56501129 127.81433678 21.56484045 135.38743462 21.5821386 142.96108472 C21.59816946 150.31072557 21.5911567 157.66018209 21.57420158 165.00981522 C21.56743169 168.10570988 21.56825778 171.20145223 21.57574654 174.29734421 C21.67540775 226.72335315 21.67540775 226.72335315 6 247 C5.28457031 247.97453125 5.28457031 247.97453125 4.5546875 248.96875 C-0.56900709 255.04509132 -7.39457547 256.62622364 -15 258 C-19.90193876 258.41291903 -24.3094164 258.56352787 -29 257 C-28.49890042 252.61537866 -27.01704885 250.1999003 -24 247 C-23.34 247 -22.68 247 -22 247 C-21.74605469 246.44054687 -21.49210938 245.88109375 -21.23046875 245.3046875 C-19.8266527 242.67531776 -18.13628893 240.48266821 -16.3125 238.125 C-3.4279014 220.47005999 -0.39156352 202.90835927 -0.45410156 181.640625 C-0.44534638 179.64813437 -0.43485391 177.65565074 -0.42277527 175.66317749 C-0.39513277 170.30473478 -0.39150574 164.94652394 -0.39249516 159.58802032 C-0.3893472 153.9692731 -0.36369012 148.35062747 -0.34051514 142.73193359 C-0.30009502 132.11476072 -0.27964743 121.49764905 -0.26654124 110.88041115 C-0.25062362 98.78348043 -0.2121881 86.68665316 -0.17194796 74.58978271 C-0.08974059 49.72655662 -0.03552898 24.86333356 0 0 Z " fill="#F3F3F3" transform="translate(554,416)"/>
<path d="M0 0 C0.33 0 0.66 0 1 0 C1 38.61 1 77.22 1 117 C-1.0018099 114.9981901 -1.67861226 113.74436999 -2.76831055 111.18725586 C-3.10593918 110.4014061 -3.44356781 109.61555634 -3.79142761 108.80589294 C-4.15287369 107.95084671 -4.51431976 107.09580048 -4.88671875 106.21484375 C-5.26681595 105.32575821 -5.64691315 104.43667267 -6.03852844 103.52064514 C-7.25936963 100.66149915 -8.47338127 97.79950612 -9.6875 94.9375 C-10.48591019 93.06687885 -11.28473397 91.19643418 -12.08398438 89.32617188 C-13.65370281 85.64980992 -15.21245391 81.96907715 -16.76318359 78.28466797 C-18.20582368 74.85875914 -19.67762058 71.44825531 -21.17822266 68.04736328 C-21.83379177 66.53293514 -22.48923537 65.01845265 -23.14453125 63.50390625 C-23.45090012 62.82794907 -23.75726898 62.15199188 -24.07292175 61.45555115 C-25.88507331 57.21235365 -26.24868317 54.44704373 -25 50 C-23.96141069 47.63827636 -22.88688865 45.40067203 -21.6875 43.125 C-20.96558013 41.71904033 -20.24426678 40.31276912 -19.5234375 38.90625 C-19.12479492 38.13410156 -18.72615234 37.36195313 -18.31542969 36.56640625 C-15.77329 31.60668607 -13.29937476 26.61258898 -10.8125 21.625 C-9.8192672 19.63789246 -8.82578499 17.65090957 -7.83203125 15.6640625 C-7.3623291 14.7246582 -6.89262695 13.78525391 -6.40869141 12.81738281 C-4.27246094 8.54492188 -2.13623047 4.27246094 0 0 Z " fill="#090909" transform="translate(284,448)"/>
<path d="M0 0 C2.64287658 3.40215556 4.38481532 6.75348779 6.15234375 10.6953125 C6.44881805 11.35230133 6.74529236 12.00929016 7.05075073 12.68618774 C8.01742636 14.83049746 8.97740933 16.97773501 9.9375 19.125 C10.94280074 21.35908372 11.94988037 23.59235953 12.95713806 25.82556152 C13.63855354 27.33646818 14.31942848 28.84761874 14.99977112 30.35900879 C18.71107289 38.5975095 22.50907308 46.79503623 26.31811523 54.98876953 C26.77645752 55.97731934 27.2347998 56.96586914 27.70703125 57.984375 C28.1038208 58.83741211 28.50061035 59.69044922 28.90942383 60.56933594 C29.26931396 61.37145508 29.6292041 62.17357422 30 63 C30.39791748 63.84594727 30.79583496 64.69189453 31.20581055 65.56347656 C32.07353938 68.22561421 31.95766068 69.41431616 31 72 C26.41678618 72.08704 21.83378466 72.14040632 17.25 72.1875 C15.29707031 72.22520508 15.29707031 72.22520508 13.3046875 72.26367188 C12.05429688 72.27333984 10.80390625 72.28300781 9.515625 72.29296875 C8.36352539 72.3086792 7.21142578 72.32438965 6.02441406 72.34057617 C2.55649264 71.95005709 1.40913324 71.49092926 -1 69 C-1.4430542 66.01972961 -1.4430542 66.01972961 -1.36230469 62.32543945 C-1.35313522 61.652005 -1.34396576 60.97857056 -1.33451843 60.284729 C-1.29946158 58.06009862 -1.23579749 55.83725393 -1.171875 53.61328125 C-1.14197548 52.07060505 -1.11386176 50.52789328 -1.08746338 48.9851532 C-1.01319471 44.92564708 -0.91465558 40.86707798 -0.81109619 36.80822754 C-0.70969473 32.66606405 -0.63119476 28.52347405 -0.55078125 24.38085938 C-0.38963095 16.25331246 -0.2028445 8.12661268 0 0 Z " fill="#080808" transform="translate(216,542)"/>
<path d="M0 0 C0.33 0 0.66 0 1 0 C1.33 7.92 1.66 15.84 2 24 C2.33 24 2.66 24 3 24 C3.1953125 26.01822917 3.390625 28.03645833 3.5859375 30.0546875 C3.86374749 32.22668245 3.86374749 32.22668245 6 34 C5.73226076 38.19458145 5.12763943 40.2476773 2 43 C1.34 44.32 0.68 45.64 0 47 C0 31.49 0 15.98 0 0 Z " fill="#3D3D3D" transform="translate(402,448)"/>
<path d="M0 0 C2.47543247 3.30057663 3.76116089 5.51200786 5.1875 9.25 C5.53167969 10.14203125 5.87585938 11.0340625 6.23046875 11.953125 C6.48441406 12.62859375 6.73835937 13.3040625 7 14 C5.75 15.5625 5.75 15.5625 4 17 C2.68 16.67 1.36 16.34 0 16 C0 10.72 0 5.44 0 0 Z " fill="#111111" transform="translate(216,542)"/>
<path d="M0 0 C0.66 0.33 1.32 0.66 2 1 C2 7.93 2 14.86 2 22 C1.67 22 1.34 22 1 22 C1 18.37 1 14.74 1 11 C0.34 11 -0.32 11 -1 11 C-1 12.32 -1 13.64 -1 15 C-1.66 15 -2.32 15 -3 15 C-2.69052329 13.06201479 -2.37731166 11.12462574 -2.0625 9.1875 C-1.88847656 8.10855469 -1.71445312 7.02960938 -1.53515625 5.91796875 C-1 3 -1 3 0 0 Z " fill="#C7C7C7" transform="translate(502,439)"/>
<path d="M0 0 C1.125 3.75 1.125 3.75 0 6 C-0.66 6 -1.32 6 -2 6 C-2 6.66 -2 7.32 -2 8 C2.29 8.33 6.58 8.66 11 9 C9 11 9 11 6.50390625 11.23046875 C5.53324219 11.21628906 4.56257812 11.20210937 3.5625 11.1875 C2.11037109 11.17783203 2.11037109 11.17783203 0.62890625 11.16796875 C-2 11 -2 11 -5 10 C-4.49701212 5.59885603 -2.91227269 3.28804981 0 0 Z " fill="#C7C7C7" transform="translate(530,663)"/>
<path d="M0 0 C0.33 0 0.66 0 1 0 C1.07347656 1.39412109 1.07347656 1.39412109 1.1484375 2.81640625 C1.69677146 12.07660933 1.69677146 12.07660933 4 21 C1.11250978 18.54273755 0.06786714 16.10734898 -1.1875 12.5625 C-1.70376953 11.14130859 -1.70376953 11.14130859 -2.23046875 9.69140625 C-3 7 -3 7 -3 3 C-2.34 3 -1.68 3 -1 3 C-0.67 2.01 -0.34 1.02 0 0 Z " fill="#323232" transform="translate(365,619)"/>
<path d="M0 0 C0.33 0 0.66 0 1 0 C1.23496938 6.37028091 0.99224297 11.91259093 -1 18 C-1.66 18.33 -2.32 18.66 -3 19 C-3.66 15.7 -4.32 12.4 -5 9 C-3.68 8.34 -2.36 7.68 -1 7 C-0.18129815 3.43793339 -0.18129815 3.43793339 0 0 Z " fill="#E8E8E8" transform="translate(364,560)"/>
<path d="M0 0 C0.33 0 0.66 0 1 0 C1 6.6 1 13.2 1 20 C0.34 18.68 -0.32 17.36 -1 16 C-1.59941406 14.81857422 -1.59941406 14.81857422 -2.2109375 13.61328125 C-3.21662136 10.28257579 -2.65632394 8.47980333 -1.625 5.1875 C-1.32851563 4.21167969 -1.03203125 3.23585938 -0.7265625 2.23046875 C-0.36691406 1.12638672 -0.36691406 1.12638672 0 0 Z " fill="#E9E9E9" transform="translate(642,416)"/>
<path d="M0 0 C0.66 0 1.32 0 2 0 C2.33 0.99 2.66 1.98 3 3 C2.05988318 4.70116376 1.05104383 6.36504293 0 8 C-0.69822617 9.65369357 -1.37498605 11.31727014 -2 13 C-3.1171875 11.296875 -3.1171875 11.296875 -4 9 C-3.3203125 6.640625 -3.3203125 6.640625 -2.125 4.25 C-1.73570312 3.45078125 -1.34640625 2.6515625 -0.9453125 1.828125 C-0.63335937 1.22484375 -0.32140625 0.6215625 0 0 Z " fill="#EDEDED" transform="translate(428,427)"/>
<path d="M0 0 C0.66 0 1.32 0 2 0 C2.66 1.98 3.32 3.96 4 6 C3.236875 6.268125 2.47375 6.53625 1.6875 6.8125 C-0.91229902 7.9612484 -2.10215992 8.9685876 -4 11 C-3.52269162 9.5410574 -3.04308958 8.08286504 -2.5625 6.625 C-2.29566406 5.81289063 -2.02882813 5.00078125 -1.75390625 4.1640625 C-1 2 -1 2 0 0 Z " fill="#E5E5E5" transform="translate(288,393)"/>
<path d="M0 0 C3.63 0 7.26 0 11 0 C10.67 0.99 10.34 1.98 10 3 C6.7 3 3.4 3 0 3 C0 2.01 0 1.02 0 0 Z " fill="#A8A79F" transform="translate(594,370)"/>
<path d="M0 0 C1.1446875 0.3403125 1.1446875 0.3403125 2.3125 0.6875 C0.97917905 4.68746286 -1.1832827 5.52532337 -4.6875 7.6875 C-5.375 5.375 -5.375 5.375 -5.6875 2.6875 C-4.0011022 -0.12316299 -3.27764429 -0.38112143 0 0 Z " fill="#ECECEC" transform="translate(871.6875,651.3125)"/>
<path d="M0 0 C0.99 0.33 1.98 0.66 3 1 C3.94921875 3.72265625 3.94921875 3.72265625 4.6875 7.0625 C4.93886719 8.16722656 5.19023437 9.27195312 5.44921875 10.41015625 C5.63097656 11.26480469 5.81273437 12.11945313 6 13 C5.01 13 4.02 13 3 13 C0.88853699 9.56887261 0.91555436 6.96894519 1 3 C0.67 2.01 0.34 1.02 0 0 Z " fill="#EAEAEA" transform="translate(320,493)"/>
<path d="M0 0 C0.66 0.33 1.32 0.66 2 1 C0.125 5.75 0.125 5.75 -1 8 C-2.65 8 -4.3 8 -6 8 C-4.55746343 4.63408134 -2.66735273 2.48952921 0 0 Z " fill="#0C0C0C" transform="translate(653,681)"/>
<path d="M0 0 C0.33 0 0.66 0 1 0 C1.10815225 1.76949095 1.18566083 3.54087487 1.25 5.3125 C1.29640625 6.29863281 1.3428125 7.28476562 1.390625 8.30078125 C1 11 1 11 -1.015625 12.85546875 C-1.67046875 13.23316406 -2.3253125 13.61085938 -3 14 C-2.68872484 12.41642541 -2.37592711 10.83315007 -2.0625 9.25 C-1.80146484 7.92742187 -1.80146484 7.92742187 -1.53515625 6.578125 C-1.07631512 4.36764947 -0.56663926 2.18487932 0 0 Z " fill="#DDDDDD" transform="translate(707,443)"/>
<path d="M0 0 C0.66 0.66 1.32 1.32 2 2 C1.68794085 6.75890208 1.03944563 10.64918266 -1 15 C-1.66 15 -2.32 15 -3 15 C-2.68917128 13.24970238 -2.37626821 11.49977306 -2.0625 9.75 C-1.88847656 8.77546875 -1.71445312 7.8009375 -1.53515625 6.796875 C-1.09620271 4.50278205 -0.59651408 2.25708029 0 0 Z " fill="#E2E2E2" transform="translate(757,408)"/>
<path d="M0 0 C3.63 0 7.26 0 11 0 C11 0.99 11 1.98 11 3 C10.01 3 9.02 3 8 3 C6.31201173 4.43750191 6.31201173 4.43750191 5 6 C4.87625 5.071875 4.87625 5.071875 4.75 4.125 C4.08785794 1.46510021 4.08785794 1.46510021 0 0 Z " fill="#090909" transform="translate(420,415)"/>
<path d="M0 0 C0.33 0 0.66 0 1 0 C1 2.64 1 5.28 1 8 C1.66 8.33 2.32 8.66 3 9 C2.25 14.75 2.25 14.75 0 17 C0 11.39 0 5.78 0 0 Z " fill="#101010" transform="translate(215,441)"/>
<path d="M0 0 C0 3.52032428 -0.70351351 4.4385343 -3 7 C-3.66 7 -4.32 7 -5 7 C-5 7.66 -5 8.32 -5 9 C-6.96147874 10.38938077 -8.96166576 11.7260411 -11 13 C-9.46356148 9.31930113 -7.21849055 7.01224796 -4.375 4.25 C-3.55773437 3.45078125 -2.74046875 2.6515625 -1.8984375 1.828125 C-0.95871094 0.92320312 -0.95871094 0.92320312 0 0 Z " fill="#E8E8E8" transform="translate(217,326)"/>
<path d="M0 0 C1.02956962 3.19823755 0.94507949 5.36577313 0.1875 8.625 C0.01605469 9.40101563 -0.15539062 10.17703125 -0.33203125 10.9765625 C-1 13 -1 13 -3 15 C-4.43410153 11.21180727 -3.51009497 8.93478721 -2.0625 5.25 C-1.49208984 3.77273438 -1.49208984 3.77273438 -0.91015625 2.265625 C-0.60980469 1.51796875 -0.30945313 0.7703125 0 0 Z " fill="#E5E5E5" transform="translate(484,376)"/>
<path d="M0 0 C0.33 0.66 0.66 1.32 1 2 C1.99 2.33 2.98 2.66 4 3 C3.01 3.99 2.02 4.98 1 6 C-1.31 5.01 -3.62 4.02 -6 3 C-3.8614515 0.8614515 -2.86724686 0.57344937 0 0 Z " fill="#0F0F0F" transform="translate(570,353)"/>
<path d="M0 0 C1.10191901 4.40767604 0.58706842 5.8922935 -1 10 C-1.66 10 -2.32 10 -3 10 C-3.33 11.32 -3.66 12.64 -4 14 C-4.66 13.67 -5.32 13.34 -6 13 C-4.02 8.71 -2.04 4.42 0 0 Z " fill="#E9E9E9" transform="translate(259,362)"/>
<path d="M0 0 C1.125 3.75 1.125 3.75 0 6 C-0.66 6 -1.32 6 -2 6 C-2.33 7.32 -2.66 8.64 -3 10 C-3.66 10 -4.32 10 -5 10 C-4.49701212 5.59885603 -2.91227269 3.28804981 0 0 Z " fill="#D2D2CF" transform="translate(530,663)"/>
<path d="M0 0 C0.33 0 0.66 0 1 0 C1 4.95 1 9.9 1 15 C-0.32 15 -1.64 15 -3 15 C-3 14.34 -3 13.68 -3 13 C-2.34 13 -1.68 13 -1 13 C-0.67 8.71 -0.34 4.42 0 0 Z " fill="#C8C8C8" transform="translate(782,615)"/>
<path d="M0 0 C0.99 0.33 1.98 0.66 3 1 C2.71125 1.556875 2.4225 2.11375 2.125 2.6875 C0.9586747 5.08494645 -0.0339881 7.51596939 -1 10 C-1.33 10 -1.66 10 -2 10 C-2.25 3.375 -2.25 3.375 0 0 Z " fill="#121212" transform="translate(404,485)"/>
<path d="M0 0 C0.66 0 1.32 0 2 0 C1.609375 6.0546875 1.609375 6.0546875 1 8 C-0.98 8.99 -0.98 8.99 -3 10 C-2.01 6.7 -1.02 3.4 0 0 Z " fill="#E6E6E6" transform="translate(491,477)"/>
<path d="M0 0 C0.99 0 1.98 0 3 0 C2.67 1.98 2.34 3.96 2 6 C0.68 6.33 -0.64 6.66 -2 7 C-1.125 1.125 -1.125 1.125 0 0 Z " fill="#0C0C0C" transform="translate(764,374)"/>
<path d="M0 0 C0.66 0.33 1.32 0.66 2 1 C1.34 3.64 0.68 6.28 0 9 C-1.74627478 6.38058783 -2.38722388 4.96175123 -3 2 C-2.01 1.34 -1.02 0.68 0 0 Z " fill="#141414" transform="translate(600,423)"/>
<path d="M0 0 C2 1 4 2 6 3 C5.67 4.32 5.34 5.64 5 7 C3.68 6.67 2.36 6.34 1 6 C0.67 4.02 0.34 2.04 0 0 Z " fill="#EFEFEF" transform="translate(835,391)"/>
<path d="M0 0 C1.3921875 0.3403125 1.3921875 0.3403125 2.8125 0.6875 C1.8225 2.1725 1.8225 2.1725 0.8125 3.6875 C-1.4975 3.3575 -3.8075 3.0275 -6.1875 2.6875 C-4.14987265 -0.14253799 -3.59070275 -0.35202968 0 0 Z " fill="#141414" transform="translate(548.1875,376.3125)"/>
<path d="M0 0 C0.99 0 1.98 0 3 0 C3.99 1.98 4.98 3.96 6 6 C4.02 5.34 2.04 4.68 0 4 C0 2.68 0 1.36 0 0 Z " fill="#EEEEEE" transform="translate(900,345)"/>
<path d="M0 0 C2.1385485 2.1385485 2.42655063 3.13275314 3 6 C1.35 6 -0.3 6 -2 6 C-2.33 5.01 -2.66 4.02 -3 3 C-2.01 2.01 -1.02 1.02 0 0 Z " fill="#0D0C0A" transform="translate(677,667)"/>
<path d="M0 0 C0.99 0.99 1.98 1.98 3 3 C2.6875 5.6875 2.6875 5.6875 2 8 C1.01 8.33 0.02 8.66 -1 9 C-0.67 6.03 -0.34 3.06 0 0 Z " fill="#1F1F1F" transform="translate(738,410)"/>
<path d="M0 0 C0 3 0 3 -1.75 5.125 C-3.95974524 6.96645436 -5.20090866 7.60012981 -8 8 C-8 7.34 -8 6.68 -8 6 C-6.02678947 4.6273318 -4.02456848 3.29572383 -2 2 C-1.34 1.34 -0.68 0.68 0 0 Z " fill="#141414" transform="translate(849,622)"/>
<path d="M0 0 C1.5 1.375 1.5 1.375 3 3 C3 3.66 3 4.32 3 5 C2.34 5 1.68 5 1 5 C1 5.66 1 6.32 1 7 C0.01 7 -0.98 7 -2 7 C-1.34 4.69 -0.68 2.38 0 0 Z " fill="#E9E9E9" transform="translate(431,522)"/>
<path d="M0 0 C0.99 1.32 1.98 2.64 3 4 C1.68 5.65 0.36 7.3 -1 9 C-2.25541557 5.23375329 -1.37061958 3.62811066 0 0 Z " fill="#EEEEEE" transform="translate(451,469)"/>
<path d="M0 0 C0.66 0.99 1.32 1.98 2 3 C-0.75 6.875 -0.75 6.875 -3 8 C-2.25 2.25 -2.25 2.25 0 0 Z " fill="#0E0E0E" transform="translate(270,425)"/>
<path d="M0 0 C0.66 0 1.32 0 2 0 C1.25 5.75 1.25 5.75 -1 8 C-1.33 6.68 -1.66 5.36 -2 4 C-1.34 4 -0.68 4 0 4 C0 2.68 0 1.36 0 0 Z " fill="#F1F1F1" transform="translate(888,629)"/>
<path d="M0 0 C1.46726798 3.81489674 0.43336419 6.29011622 -1 10 C-1.33 10 -1.66 10 -2 10 C-2 7.36 -2 4.72 -2 2 C-1.34 2 -0.68 2 0 2 C0 1.34 0 0.68 0 0 Z " fill="#F0F0F0" transform="translate(721,598)"/>
<path d="M0 0 C1.32 1.32 2.64 2.64 4 4 C3.34 5.65 2.68 7.3 2 9 C1.67 9 1.34 9 1 9 C0.67 6.03 0.34 3.06 0 0 Z " fill="#1B1B1B" transform="translate(308,525)"/>
<path d="M0 0 C0.99 0 1.98 0 3 0 C3 2.97 3 5.94 3 9 C1.35649921 5.71299843 0.58678331 3.52069985 0 0 Z " fill="#CCCCCC" transform="translate(507,361)"/>
</svg>
